<svg xmlns="http://www.w3.org/2000/svg" xmlns:xlink="http://www.w3.org/1999/xlink" width="20px" height="20px" viewBox="0 0 200 200" preserveAspectRatio="xMidYMid meet" ><rect id="svgEditorBackground" x="0" y="0" width="1380" height="850" style="fill:none; stroke: none;"/><defs id="svgEditorDefs"><polygon id="svgEditorShapeDefs" style="fill:khaki;stroke:black;vector-effect:non-scaling-stroke;stroke-width:1px;"/></defs><g style="fill:#1f9363; stroke:#1f9363; vector-effect:non-scaling-stroke;stroke-width:1px;" id="e4_shape" transform="matrix(1.37867 0.00362818 -0.00362818 1.37867 11.8565 9.52694)"><path d="M64,52c0,6.6270000000000024,-5.3729999999999976,12,-12,12s-12,-5.3729999999999976,-12,-12c0,-6.6270000000000024,5.3729999999999976,-12,12,-12s12,5.3729999999999976,12,12Z"/><path d="M126.1,88h-6.0930000000000035c-0.7810000000000059,0,-1.4590000000000032,-0.4989999999999952,-1.7339999999999947,-1.230000000000004c-0.009000000000000341,-0.022999999999996135,-0.016999999999995907,-0.045000000000001705,-0.02599999999999625,-0.06900000000000261c-0.269999999999996,-0.7120000000000033,-0.12099999999999511,-1.5139999999999958,0.4170000000000016,-2.0520000000000067l4.275999999999996,-4.275999999999996c0.7409999999999997,-0.7409999999999997,0.7409999999999997,-1.9449999999999932,0,-2.686000000000007l-8.626999999999995,-8.626999999999995c-0.7409999999999997,-0.7409999999999997,-1.9449999999999932,-0.7409999999999997,-2.685999999999993,0l-4.275999999999996,4.275999999999996c-0.5390000000000015,0.5390000000000015,-1.340999999999994,0.6869999999999976,-2.0520000000000067,0.4170000000000016c-0.022999999999996135,-0.009000000000000341,-0.045000000000001705,-0.018000000000000682,-0.06900000000000261,-0.02599999999999625c-0.7309999999999945,-0.2750000000000057,-1.230000000000004,-0.9539999999999935,-1.230000000000004,-1.7339999999999947v-6.0930000000000035c0,-1.0490000000000066,-0.8509999999999991,-1.8999999999999986,-1.9000000000000057,-1.8999999999999986h-12.201999999999998c-1.046999999999997,0.0009999999999976694,-1.8979999999999961,0.8519999999999968,-1.8979999999999961,1.8999999999999986v6.168000000000006c0,0.7660000000000053,-0.4609999999999985,1.4539999999999935,-1.1680000000000064,1.7489999999999952c-0.007999999999995566,0.0040000000000048885,-0.016000000000005343,0.006000000000000227,-0.022999999999996135,0.010000000000005116c-0.7109999999999985,0.2980000000000018,-1.5289999999999964,0.1389999999999958,-2.073999999999998,-0.4060000000000059l-4.361999999999995,-4.361999999999995c-0.21699999999999875,-0.21699999999999875,-0.4749999999999943,-0.36299999999999955,-0.7480000000000047,-0.45300000000000296c-0.03900000000000148,-0.01300000000000523,-0.07699999999999818,-0.02400000000000091,-0.11700000000000443,-0.03499999999999659c-0.1560000000000059,-0.04099999999999682,-0.3160000000000025,-0.06900000000000261,-0.47700000000000387,-0.06900000000000261c-0.0010000000000047748,0,-0.0010000000000047748,0,-0.001999999999995339,0s-0.001999999999995339,0,-0.001999999999995339,0c-0.16100000000000136,0,-0.3199999999999932,0.028000000000005798,-0.47700000000000387,0.06900000000000261c-0.04000000000000625,0.010000000000005116,-0.07699999999999818,0.021000000000000796,-0.11700000000000443,0.03499999999999659c-0.27299999999999613,0.09000000000000341,-0.5310000000000059,0.2360000000000042,-0.7480000000000047,0.45300000000000296l-8.626999999999995,8.626999999999995c-0.7409999999999997,0.7409999999999997,-0.7409999999999997,1.9449999999999932,0,2.685999999999993l4.361999999999995,4.361999999999995c0.5450000000000017,0.5450000000000017,0.703000000000003,1.3640000000000043,0.4060000000000059,2.073999999999998c-0.0040000000000048885,0.007999999999995566,-0.006000000000000227,0.016000000000005343,-0.010000000000005116,0.022999999999996135c-0.2960000000000065,0.7069999999999936,-0.9839999999999947,1.168999999999997,-1.75,1.168999999999997h-6.168000000000006c-1.0490000000000066,0,-1.8999999999999986,0.8509999999999991,-1.8999999999999986,1.9000000000000057v12.201999999999998c0,1.0490000000000066,0.8510000000000062,1.9000000000000057,1.8999999999999986,1.9000000000000057h6.0930000000000035c0.7810000000000059,0,1.4590000000000032,0.4989999999999952,1.7339999999999947,1.230000000000004c0.009000000000000341,0.022999999999996135,0.016999999999995907,0.045000000000001705,0.02599999999999625,0.06900000000000261c0.269999999999996,0.7120000000000033,0.12099999999999511,1.5139999999999958,-0.4170000000000016,2.0520000000000067l-4.275999999999996,4.275999999999996c-0.7409999999999997,0.7409999999999997,-0.7409999999999997,1.9449999999999932,0,2.686000000000007l8.626999999999995,8.626999999999995c0.7409999999999997,0.7409999999999997,1.9449999999999932,0.7409999999999997,2.686000000000007,0l4.275999999999996,-4.275999999999996c0.5390000000000015,-0.5390000000000015,1.340999999999994,-0.6869999999999976,2.0520000000000067,-0.4170000000000016c0.022999999999996135,0.009000000000000341,0.045000000000001705,0.018000000000000682,0.06900000000000261,0.02599999999999625c0.7309999999999945,0.2750000000000057,1.230000000000004,0.9539999999999935,1.230000000000004,1.7339999999999947v6.0930000000000035c0,1.0490000000000066,0.8509999999999991,1.8989999999999867,1.9000000000000057,1.8989999999999867h12.201999999999998c1.0490000000000066,0,1.9000000000000057,-0.8509999999999991,1.9000000000000057,-1.9000000000000057v-6.168000000000006c0,-0.7660000000000053,0.4609999999999985,-1.4539999999999935,1.1680000000000064,-1.7489999999999952c0.007999999999995566,-0.0040000000000048885,0.016000000000005343,-0.006000000000000227,0.022999999999996135,-0.010000000000005116c0.7109999999999985,-0.2980000000000018,1.5289999999999964,-0.1389999999999958,2.073999999999998,0.4060000000000059l4.361999999999995,4.361999999999995c0.7409999999999997,0.7409999999999997,1.9449999999999932,0.7409999999999997,2.685999999999993,0l8.626999999999995,-8.626999999999995c0.7409999999999997,-0.7409999999999997,0.7409999999999997,-1.9449999999999932,0,-2.686000000000007l-4.361999999999995,-4.361999999999995c-0.5450000000000017,-0.5450000000000017,-0.703000000000003,-1.3640000000000043,-0.4060000000000059,-2.073999999999998c0.0040000000000048885,-0.007999999999995566,0.006000000000000227,-0.016000000000005343,0.010000000000005116,-0.022999999999996135c0.2950000000000017,-0.7069999999999936,0.9830000000000041,-1.1680000000000064,1.7489999999999952,-1.1680000000000064h6.168000000000006c1.0490000000000066,0,1.9000000000000057,-0.8509999999999991,1.9000000000000057,-1.9000000000000057v-12.201999999999998c-0.0010000000000047748,-1.051000000000002,-0.8520000000000039,-1.9009999999999962,-1.9000000000000057,-1.9009999999999962ZM79.625,68.606c-0.0379999999999967,-0.01300000000000523,-0.0759999999999934,-0.02400000000000091,-0.11499999999999488,-0.034000000000006025c0.03900000000000148,0.010000000000005116,0.0759999999999934,0.01999999999999602,0.11499999999999488,0.034000000000006025ZM78.549,68.573c-0.0379999999999967,0.010000000000005116,-0.07699999999999818,0.021000000000000796,-0.11499999999999488,0.034000000000006025c0.03900000000000148,-0.01300000000000523,0.0759999999999934,-0.02400000000000091,0.11499999999999488,-0.034000000000006025ZM96,112c-8.837000000000003,0,-16,-7.162999999999997,-16,-16s7.162999999999997,-16,16,-16s16,7.162999999999997,16,16s-7.162999999999997,16,-16,16Z"/><path d="M104 96c0 4.418-3.582 8-8 8s-8-3.582-8-8c0-4.418 3.582-8 8-8s8 3.582 8 8z"/><path d="M2.849 64h13.253c1.154 0 2.189 0.699 2.628 1.765 0.005 0.011 0.010 0.023 0.014 0.035 0.439 1.063 0.2 2.284-0.614 3.098l-9.371 9.371c-1.112 1.112-1.112 2.916 0 4.028l12.942 12.942c1.112 1.112 2.916 1.112 4.029 0l9.371-9.371c0.814-0.814 2.035-1.053 3.098-0.614 0.011 0.004 0.023 0.010 0.035 0.014 1.067 0.439 1.765 1.475 1.765 2.629v13.253c0 1.573 1.276 2.849 2.849 2.849h13.355c-0.121-0.617-0.205-1.247-0.205-1.9v-12.202c0-3.594 1.925-6.746 4.797-8.481-0.222-0.9-0.304-1.824-0.271-2.745-2.689 0.859-5.553 1.327-8.526 1.327-15.464 0-28-12.536-28-28s12.536-28 28-28 28 12.536 28 28c0 2.971-0.467 5.833-1.325 8.52 0.118-0.005 0.235-0.018 0.354-0.018 0.817 0 1.62 0.098 2.392 0.289 1.736-2.868 4.887-4.791 8.478-4.791h12.202c0.651 0 1.282 0.084 1.9 0.205v-13.355c0-1.573-1.275-2.849-2.849-2.849h-13.253c-1.154 0-2.189-0.699-2.629-1.765-0.004-0.011-0.010-0.023-0.014-0.035-0.439-1.063-0.2-2.285 0.614-3.098l9.371-9.371c1.112-1.112 1.112-2.916 0-4.029l-12.942-12.942c-1.112-1.112-2.916-1.112-4.028 0l-9.373 9.371c-0.814 0.814-2.035 1.053-3.098 0.614-0.011-0.005-0.023-0.010-0.035-0.014-1.067-0.439-1.765-1.475-1.765-2.628v-13.253c0-1.573-1.276-2.849-2.849-2.849h-18.302c-1.573 0-2.849 1.276-2.849 2.849v13.253c0 1.154-0.699 2.189-1.765 2.628-0.011 0.005-0.023 0.010-0.035 0.014-1.063 0.439-2.285 0.2-3.098-0.614l-9.371-9.371c-1.112-1.112-2.916-1.112-4.029 0l-12.942 12.942c-1.112 1.112-1.112 2.916 0 4.029l9.371 9.371c0.814 0.814 1.053 2.035 0.614 3.098-0.005 0.011-0.010 0.023-0.014 0.035-0.439 1.067-1.475 1.765-2.628 1.765h-13.253c-1.573 0-2.849 1.276-2.849 2.849v18.302c0 1.573 1.276 2.849 2.849 2.849z"/></g></svg>