<svg xmlns="http://www.w3.org/2000/svg" width="185" height="185" viewBox="0 0 185 185">
  <metadata><?xpacket begin="﻿" id="W5M0MpCehiHzreSzNTczkc9d"?>
<x:xmpmeta xmlns:x="adobe:ns:meta/" x:xmptk="Adobe XMP Core 5.6-c138 79.159824, 2016/09/14-01:09:01        ">
   <rdf:RDF xmlns:rdf="http://www.w3.org/1999/02/22-rdf-syntax-ns#">
      <rdf:Description rdf:about=""/>
   </rdf:RDF>
</x:xmpmeta>
                                                                                                    
                                                                                                    
                                                                                                    
                                                                                                    
                                                                                                    
                                                                                                    
                                                                                                    
                                                                                                    
                                                                                                    
                                                                                                    
                                                                                                    
                                                                                                    
                                                                                                    
                                                                                                    
                                                                                                    
                                                                                                    
                                                                                                    
                                                                                                    
                                                                                                    
                                                                                                    
                           
<?xpacket end="w"?></metadata>
<defs>
    <style>
      .cls-1, .cls-3 {
        fill: #1f9363;
      }

      .cls-2 {
        fill: #fff;
      }

      .cls-2, .cls-3 {
        fill-rule: evenodd;
      }

      .cls-3 {
        stroke: #fff;
        stroke-linejoin: round;
        stroke-width: 3px;
      }
    </style>
  </defs>
  <circle class="cls-1" cx="92.5" cy="92.5" r="92.5"/>
  <path class="cls-2" d="M103.924,68H148l-20,63H61L41,68H92.07a5.437,5.437,0,0,1,.719-2.714l13.5-23.383a5.5,5.5,0,0,1,9.527,5.5ZM46,71l18,57h61l18-57H46Zm66.3-28.512a2.5,2.5,0,0,0-3.416.915l-13,22.517A2.463,2.463,0,0,0,95.715,68h4.745l12.758-22.1A2.5,2.5,0,0,0,112.3,42.488ZM94.5,89a5.5,5.5,0,1,1,5.5-5.5A5.5,5.5,0,0,1,94.5,89Zm0-8A2.5,2.5,0,1,0,97,83.5,2.5,2.5,0,0,0,94.5,81Z"/>
  <path id="Rounded_Rectangle_47" data-name="Rounded Rectangle 47" class="cls-3" d="M134,142s0.026,4.109-5,9c-2.2,2.143-2,6-2,6H105s-0.478-1.722-1-4-9-12-9-12l0.013-.014A8.5,8.5,0,0,1,99,127.375V99a5,5,0,0,1,10,0v17a4,4,0,0,1,8,0v1a4,4,0,0,1,8,0v1.29a5.471,5.471,0,0,1,9,4.21v19c0,0.15-.032.291-0.044,0.438Z"/>
</svg>
