<svg xmlns="http://www.w3.org/2000/svg" width="45" height="45" viewBox="0 0 45 45">
  <metadata><?xpacket begin="﻿" id="W5M0MpCehiHzreSzNTczkc9d"?>
<x:xmpmeta xmlns:x="adobe:ns:meta/" x:xmptk="Adobe XMP Core 5.6-c142 79.160924, 2017/07/13-01:06:39        ">
   <rdf:RDF xmlns:rdf="http://www.w3.org/1999/02/22-rdf-syntax-ns#">
      <rdf:Description rdf:about=""/>
   </rdf:RDF>
</x:xmpmeta>
                                                                                                    
                                                                                                    
                                                                                                    
                                                                                                    
                                                                                                    
                                                                                                    
                                                                                                    
                                                                                                    
                                                                                                    
                                                                                                    
                                                                                                    
                                                                                                    
                                                                                                    
                                                                                                    
                                                                                                    
                                                                                                    
                                                                                                    
                                                                                                    
                                                                                                    
                                                                                                    
                           
<?xpacket end="w"?></metadata>
<defs>
    <style>
      .cls-1 {
        fill: #1f9363;
      }

      .cls-2 {
        fill: #fff;
        fill-rule: evenodd;
      }
    </style>
  </defs>
  <circle id="Ellipse_14_copy" data-name="Ellipse 14 copy" class="cls-1" cx="22.5" cy="22.5" r="22.5"/>
  <path id="s" class="cls-2" d="M28.907,31.195a6.444,6.444,0,0,0,2.048-5.024A5.929,5.929,0,0,0,29.627,22.2a9.912,9.912,0,0,0-4.5-2.624l-2.88-.96a3.144,3.144,0,0,1-1.184-.64,1.413,1.413,0,0,1,.192-2.048,2.544,2.544,0,0,1,1.568-.416,4.8,4.8,0,0,1,3.584,1.568l3.328-3.488q-2.465-2.88-7.232-2.88a8.213,8.213,0,0,0-5.264,1.712,5.76,5.76,0,0,0-2.16,4.784q0,4.769,5.408,6.56l2.56,0.864a5.524,5.524,0,0,1,1.648.784,1.307,1.307,0,0,1,.5,1.072q0,1.728-2.752,1.728A5.7,5.7,0,0,1,17.9,25.851l-4.224,3.168a10.273,10.273,0,0,0,3.472,2.848A11.717,11.717,0,0,0,22.7,33.051Q26.858,33.051,28.907,31.195Z"/>
</svg>
