<svg xmlns="http://www.w3.org/2000/svg" width="17" height="18" viewBox="0 0 17 18">
  <metadata><?xpacket begin="﻿" id="W5M0MpCehiHzreSzNTczkc9d"?>
<x:xmpmeta xmlns:x="adobe:ns:meta/" x:xmptk="Adobe XMP Core 5.6-c138 79.159824, 2016/09/14-01:09:01        ">
   <rdf:RDF xmlns:rdf="http://www.w3.org/1999/02/22-rdf-syntax-ns#">
      <rdf:Description rdf:about=""/>
   </rdf:RDF>
</x:xmpmeta>
                                                                                                    
                                                                                                    
                                                                                                    
                                                                                                    
                                                                                                    
                                                                                                    
                                                                                                    
                                                                                                    
                                                                                                    
                                                                                                    
                                                                                                    
                                                                                                    
                                                                                                    
                                                                                                    
                                                                                                    
                                                                                                    
                                                                                                    
                                                                                                    
                                                                                                    
                                                                                                    
                           
<?xpacket end="w"?></metadata>
<defs>
    <style>
      .cls-1 {
        fill: #1f9363;
        fill-rule: evenodd;
      }
    </style>
  </defs>
  <path id="Ellipse_3_copy" data-name="Ellipse 3 copy" class="cls-1" d="M15.19,17.216a6.787,6.787,0,0,0-6.362-4.31,6.782,6.782,0,0,0-6.472,4.6A13.471,13.471,0,0,1,.677,16.489,8.741,8.741,0,0,1,8.844,11a8.758,8.758,0,0,1,8.005,5.1A13.513,13.513,0,0,1,15.19,17.216ZM8.5,0A4.5,4.5,0,1,1,4,4.5,4.5,4.5,0,0,1,8.5,0Zm0,1.812A2.688,2.688,0,1,1,5.813,4.5,2.688,2.688,0,0,1,8.5,1.812Z"/>
</svg>
