<svg xmlns="http://www.w3.org/2000/svg" width="182" height="30" viewBox="0 0 182 30">
  <metadata><?xpacket begin="﻿" id="W5M0MpCehiHzreSzNTczkc9d"?>
<x:xmpmeta xmlns:x="adobe:ns:meta/" x:xmptk="Adobe XMP Core 5.6-c142 79.160924, 2017/07/13-01:06:39        ">
   <rdf:RDF xmlns:rdf="http://www.w3.org/1999/02/22-rdf-syntax-ns#">
      <rdf:Description rdf:about=""/>
   </rdf:RDF>
</x:xmpmeta>
                                                                                                    
                                                                                                    
                                                                                                    
                                                                                                    
                                                                                                    
                                                                                                    
                                                                                                    
                                                                                                    
                                                                                                    
                                                                                                    
                                                                                                    
                                                                                                    
                                                                                                    
                                                                                                    
                                                                                                    
                                                                                                    
                                                                                                    
                                                                                                    
                                                                                                    
                                                                                                    
                           
<?xpacket end="w"?></metadata>
<defs>
    <style>
      .cls-1 {
        fill-rule: evenodd;
      }
    </style>
  </defs>
  <path id="SVAIGI.LV" class="cls-1" d="M19.321,27.014A8.092,8.092,0,0,0,21.893,20.7a7.445,7.445,0,0,0-1.668-4.983,12.447,12.447,0,0,0-5.646-3.3l-3.617-1.206a3.947,3.947,0,0,1-1.487-.8,1.626,1.626,0,0,1-.442-1.206,1.639,1.639,0,0,1,.683-1.366,3.194,3.194,0,0,1,1.969-.522,6.027,6.027,0,0,1,4.5,1.969l4.179-4.38q-3.1-3.617-9.082-3.617a10.314,10.314,0,0,0-6.611,2.15A7.233,7.233,0,0,0,1.96,9.452q0,5.989,6.792,8.238l3.215,1.085a6.937,6.937,0,0,1,2.07.985,1.642,1.642,0,0,1,.623,1.346q0,2.17-3.456,2.17A7.164,7.164,0,0,1,5.5,20.3l-5.3,3.979a12.9,12.9,0,0,0,4.36,3.577,14.714,14.714,0,0,0,6.972,1.487Q16.748,29.345,19.321,27.014Zm21.7-25.4L35.6,14.355,30.01,1.616h-7.8l12.86,27.608a0.245,0.245,0,0,0,.482,0l12.9-27.608H41.022Zm10.448,25H61.4l1.045,2.331H70L56.735,1.134a0.245,0.245,0,0,0-.482,0L42.95,28.943H50.1l1-2.331H51.47Zm1.969-5.465L56.172,14.8l2.813,6.349H53.439Zm26.965,7.8V1.616H73.091V28.943H80.4Zm18.767-5.787a6.709,6.709,0,0,1-5.385-2.25,8.341,8.341,0,0,1-1.929-5.626,8.17,8.17,0,0,1,1.829-5.486,6.315,6.315,0,0,1,5.084-2.15,7.212,7.212,0,0,1,6.028,2.934l5.1-4.421Q106.124,1.3,98.931,1.294A14.574,14.574,0,0,0,88.643,5.253a13.1,13.1,0,0,0-4.26,10.027,13.129,13.129,0,0,0,4.28,10.047A14.756,14.756,0,0,0,99.091,29.3q7.313,0,11.9-3.778V14.114H99.051V19.74h5.425v2.331a12.1,12.1,0,0,1-5.3,1.085h0Zm23.348,5.787V1.616h-7.314V28.943h7.314Zm11.212-.723a3.886,3.886,0,0,0,0-5.626,4.1,4.1,0,0,0-5.647,0,3.931,3.931,0,0,0,0,5.626A4.105,4.105,0,0,0,133.732,28.22Zm24.352,0.723V22.794H146.47V1.616h-7.314V28.943h18.928ZM173.637,1.616l-5.426,12.739L162.625,1.616h-7.8l12.86,27.608a0.245,0.245,0,0,0,.482,0l12.9-27.608h-7.434Z"/>
</svg>
