<svg xmlns="http://www.w3.org/2000/svg" width="182" height="30" viewBox="0 0 182 30">
  <metadata><?xpacket begin="﻿" id="W5M0MpCehiHzreSzNTczkc9d"?>
<x:xmpmeta xmlns:x="adobe:ns:meta/" x:xmptk="Adobe XMP Core 5.6-c138 79.159824, 2016/09/14-01:09:01        ">
   <rdf:RDF xmlns:rdf="http://www.w3.org/1999/02/22-rdf-syntax-ns#">
      <rdf:Description rdf:about=""/>
   </rdf:RDF>
</x:xmpmeta>
                                                                                                    
                                                                                                    
                                                                                                    
                                                                                                    
                                                                                                    
                                                                                                    
                                                                                                    
                                                                                                    
                                                                                                    
                                                                                                    
                                                                                                    
                                                                                                    
                                                                                                    
                                                                                                    
                                                                                                    
                                                                                                    
                                                                                                    
                                                                                                    
                                                                                                    
                                                                                                    
                           
<?xpacket end="w"?></metadata>
<defs>
    <style>
      .cls-1 {
        fill: #fff;
        fill-rule: evenodd;
      }
    </style>
  </defs>
  <path id="SVAIGI.LV" class="cls-1" d="M168.171,29.224a0.245,0.245,0,0,1-.482,0L154.829,1.616h7.8l5.586,12.739,5.426-12.739h7.434Zm-10.087-.281H139.156V1.616h7.314V22.794h11.614v6.149Zm-27.165.4a3.974,3.974,0,0,1-2.834-1.125,3.931,3.931,0,0,1,0-5.626,4.1,4.1,0,0,1,5.647,0,3.886,3.886,0,0,1,0,5.626A4,4,0,0,1,130.919,29.345ZM115.206,1.616h7.314V28.943h-7.314V1.616ZM99.091,29.3a14.756,14.756,0,0,1-10.428-3.979,13.129,13.129,0,0,1-4.28-10.047,13.1,13.1,0,0,1,4.26-10.027A14.574,14.574,0,0,1,98.931,1.294q7.193,0,10.971,4.863l-5.1,4.421A7.212,7.212,0,0,0,98.77,7.644a6.315,6.315,0,0,0-5.084,2.15,8.17,8.17,0,0,0-1.829,5.486,8.341,8.341,0,0,0,1.929,5.626,6.709,6.709,0,0,0,5.385,2.25,12.1,12.1,0,0,0,5.3-1.085V19.74H99.051V14.114h11.936V25.527Q106.4,29.305,99.091,29.3Zm-26-27.689H80.4V28.943H73.091V1.616Zm-11.694,25H51.108l-1,2.331H42.95l13.3-27.809a0.245,0.245,0,0,1,.482,0L70,28.943H62.441ZM56.172,14.8l-2.733,6.349h5.546ZM35.315,29.425a0.263,0.263,0,0,1-.241-0.2L22.214,1.616h7.8L35.6,14.355,41.022,1.616h7.435l-12.9,27.608A0.264,0.264,0,0,1,35.315,29.425Zm-24.353-18.2,3.617,1.206a12.447,12.447,0,0,1,5.646,3.3A7.445,7.445,0,0,1,21.893,20.7a8.092,8.092,0,0,1-2.572,6.309q-2.572,2.331-7.8,2.331a14.714,14.714,0,0,1-6.972-1.487,12.9,12.9,0,0,1-4.36-3.577L5.5,20.3A7.164,7.164,0,0,0,11.2,23.277q3.456,0,3.456-2.17a1.642,1.642,0,0,0-.623-1.346,6.937,6.937,0,0,0-2.07-.985L8.752,17.691Q1.96,15.441,1.96,9.452A7.233,7.233,0,0,1,4.673,3.444a10.314,10.314,0,0,1,6.611-2.15q5.987,0,9.082,3.617l-4.179,4.38a6.027,6.027,0,0,0-4.5-1.969,3.194,3.194,0,0,0-1.969.522,1.639,1.639,0,0,0-.683,1.366,1.626,1.626,0,0,0,.442,1.206A3.947,3.947,0,0,0,10.962,11.221Z"/>
</svg>
